#N canvas 827 239 527 327 12;
#X msg 1047 450 0 \, 1 200;
#X obj 1047 479 line~;
#X text 1144 463 <- Ramp Generator;
#X obj 1047 587 -~ 0.25;
#X obj 1047 616 cos~;
#X obj 1047 547 *~ 20;
#X obj 1047 513 sqrt~;
#X obj 1047 650 lop~ 1000;
#X text 1121 604 <- Sine Waveshaper;
#X text 1107 513 <- Pitch Bend;
#X text 1107 547 <- Pitch;
#X obj 1047 412 bng 24 250 50 0 empty empty empty 17 7 0 10 #00fc04 #000000 #000000;
#X obj 1313 740 dac~;
#X obj 1324 650 line~;
#X msg 1324 616 \$1 20;
#X obj 1313 693 *~;
#X text 1475 577 <- volume;
#X text 1283 448 kick drum from the Simple Drum Machine tutorial by Mike Moreno, f 35;
#X obj 1324 578 r knob1 @hv_param;
#X obj 1046 378 r button1 @hv_param;
#X text 1230 377 "button1" setup in json as a 'switch' component - this will trigger a bang, f 35;
#X connect 0 0 1 0;
#X connect 1 0 6 0;
#X connect 3 0 4 0;
#X connect 4 0 7 0;
#X connect 5 0 3 0;
#X connect 6 0 5 0;
#X connect 7 0 15 0;
#X connect 11 0 0 0;
#X connect 13 0 15 1;
#X connect 14 0 13 0;
#X connect 15 0 12 0;
#X connect 15 0 12 1;
#X connect 18 0 14 0;
#X connect 19 0 11 0;
