#N canvas 827 239 527 327 12;
#X obj 63 145 r knob5 @hv_param;
#X obj 63 180 * 440;
#X obj 467 423 spigot, f 7;
#X obj 582 423 spigot;
#X obj 705 423 spigot;
#X obj 555 646 dac~;
#X obj 555 566 hv.osc~ sine;
#X obj 555 530 sig~;
#X obj 315 88 r toggle1left_press @hv_param;
#X obj 830 88 r toggle1right_press @hv_param;
#X obj 830 215 * 2;
#X msg 586 379 1;
#X msg 704 379 1;
#X msg 466 379 1;
#X msg 494 379 0;
#X msg 613 379 0;
#X msg 732 379 0;
#X floatatom 830 188 5 0 0 0 - - - 0;
#X obj 555 606 clip~ -0.8 0.8;
#X obj 528 88 r toggle1left_fall @hv_param, f 30;
#X obj 591 120 r toggle1right_fall @hv_param, f 30;
#X text 608 30 sends: 0;
#X text 383 49 0 on release;
#X text 341 30 sends: 1 on active;
#X text 925 49 0 on release;
#X text 883 30 sends: 1 on active;
#X floatatom 591 188 5 0 0 0 - - - 0;
#X floatatom 528 188 5 0 0 0 - - - 0;
#X obj 584 318 sel 0;
#X floatatom 594 272 5 0 0 0 - - - 12;
#X obj 469 318 sel 1;
#X obj 705 318 sel 2;
#X obj 482 239 +;
#X obj 539 239 +;
#X obj 591 239 +;
#X obj 467 474 / 2;
#X obj 582 474 * 1;
#X obj 705 474 * 2;
#X floatatom 315 188 5 0 0 0 - - - 0;
#X connect 0 0 1 0;
#X connect 1 0 2 0;
#X connect 1 0 3 0;
#X connect 1 0 4 0;
#X connect 2 0 35 0;
#X connect 3 0 36 0;
#X connect 4 0 37 0;
#X connect 6 0 18 0;
#X connect 7 0 6 0;
#X connect 8 0 38 0;
#X connect 9 0 17 0;
#X connect 10 0 34 1;
#X connect 11 0 3 1;
#X connect 12 0 4 1;
#X connect 13 0 2 1;
#X connect 14 0 2 1;
#X connect 15 0 3 1;
#X connect 16 0 4 1;
#X connect 17 0 10 0;
#X connect 18 0 5 0;
#X connect 18 0 5 1;
#X connect 19 0 27 0;
#X connect 20 0 26 0;
#X connect 26 0 33 1;
#X connect 27 0 32 1;
#X connect 28 0 11 0;
#X connect 28 1 15 0;
#X connect 29 0 30 0;
#X connect 29 0 28 0;
#X connect 29 0 31 0;
#X connect 30 0 13 0;
#X connect 30 1 14 0;
#X connect 31 0 12 0;
#X connect 31 1 16 0;
#X connect 32 0 33 0;
#X connect 33 0 34 0;
#X connect 34 0 29 0;
#X connect 35 0 7 0;
#X connect 36 0 7 0;
#X connect 37 0 7 0;
#X connect 38 0 32 0;
