#N canvas 827 239 527 327 12;
#X obj 559 495 r toggle1left_press @hv_param, f 30;
#X obj 559 529 change;
#X obj 765 980 dac~;
#X obj 469 759 osc~ 110;
#X obj 1103 759 osc~ 440;
#X obj 559 807 *~;
#X obj 880 807 *~;
#X obj 878 716 line~ 0.5;
#X obj 1188 807 *~;
#X obj 878 501 r toggle1left_fall @hv_param, f 30;
#X obj 779 719 noise~;
#X msg 559 585 \$1 20, f 9;
#X text 559 389 _press returns a float 1 = pressed \, 0 = not pressed;
#X text 880 395 _fall returns a bang on falling edge \, so when you turn it off it sends the bang to 0 and to 1, f 36;
#X text 559 414 $ recieves the float \, gradually changes to the value over 20ms, f 36;
#X obj 1188 495 r toggle1right_press @hv_param;
#X obj 1188 525 change;
#X msg 878 654 1 20;
#X msg 939 625 0 20;
#X text 559 454 anything triggers the bang so _press triggers also the 0 for the other 2, f 36;
#X obj 930 538 r toggle1right_fall @hv_param, f 30;
#X msg 1188 585 \$1 20, f 9;
#X obj 1187 716 line~ 0.5;
#X obj 558 716 line~ 0.5;
#X obj 779 759 *~ 0.2;
#X connect 0 0 1 0;
#X connect 1 0 11 0;
#X connect 3 0 5 0;
#X connect 4 0 8 0;
#X connect 5 0 2 0;
#X connect 5 0 2 1;
#X connect 6 0 2 0;
#X connect 6 0 2 1;
#X connect 7 0 6 1;
#X connect 8 0 2 0;
#X connect 8 0 2 1;
#X connect 9 0 17 0;
#X connect 10 0 24 0;
#X connect 11 0 18 0;
#X connect 11 0 23 0;
#X connect 15 0 16 0;
#X connect 16 0 21 0;
#X connect 17 0 7 0;
#X connect 18 0 7 0;
#X connect 20 0 17 0;
#X connect 21 0 18 0;
#X connect 21 0 22 0;
#X connect 22 0 8 1;
#X connect 23 0 5 1;
#X connect 24 0 6 0;
