#N canvas 827 239 527 327 12;
#X msg 147 237 1;
#X msg 179 236 0;
#X obj 145 205 sel 1;
#X obj 145 96 change;
#X obj 145 168 tgl 25 0 empty empty empty 17 7 0 10 #191919 #e1e1e1 #e1e1e1 0 1;
#X obj 145 137 sel 1;
#X obj 62 137 loadbang;
#X obj 145 70 r mpr121_driver_ch0 @hv_param;
#X msg 427 237 1;
#X msg 459 236 0;
#X obj 425 205 sel 1;
#X obj 425 96 change;
#X obj 425 168 tgl 25 0 empty empty empty 17 7 0 10 #191919 #e1e1e1 #e1e1e1 0 1;
#X obj 425 137 sel 1;
#X obj 342 137 loadbang;
#X msg 729 237 1;
#X msg 761 236 0;
#X obj 727 205 sel 1;
#X obj 727 96 change;
#X obj 727 168 tgl 25 0 empty empty empty 17 7 0 10 #191919 #e1e1e1 #e1e1e1 0 1;
#X obj 727 137 sel 1;
#X obj 644 137 loadbang;
#X obj 727 70 r mpr121_driver_ch2 @hv_param;
#X obj 425 70 r mpr121_driver_ch1 @hv_param;
#X msg 1018 240 1;
#X msg 1050 239 0;
#X obj 1016 208 sel 1;
#X obj 1016 99 change;
#X obj 1016 171 tgl 25 0 empty empty empty 17 7 0 10 #191919 #e1e1e1 #e1e1e1 0 1;
#X obj 1016 140 sel 1;
#X obj 933 140 loadbang;
#X obj 145 278 s led2 @hv_param;
#X obj 425 298 s led3 @hv_param;
#X obj 727 278 s led4 @hv_param;
#X obj 1016 281 s led1 @hv_param;
#X obj 1016 73 r mpr121_driver_ch10 @hv_param;
#X obj 99 355 cnv 15 204 296 empty empty empty 20 12 0 14 #696969 #e1e1e1 0;
#X obj 105 366 r toggle1left @hv_param;
#X obj 134 394 r toggle1right @hv_param;
#X msg 167 491 1 1000;
#X msg 105 491 0 1000;
#X obj 105 614 s led2 @hv_param;
#X obj 105 521 line;
#X obj 475 364 r toggle1left @hv_param;
#X obj 504 392 r toggle1right @hv_param;
#X floatatom 466 618 7 0 0 0 - - - 0;
#X obj 469 563 snapshot~;
#X obj 469 506 line~;
#X obj 536 532 metro 100;
#X obj 536 505 loadbang;
#X obj 552 614 s led3 @hv_param;
#X msg 548 444 1 1000;
#X msg 480 444 0 1000;
#X connect 2 0 0 0;
#X connect 2 1 1 0;
#X connect 3 0 5 0;
#X connect 4 0 2 0;
#X connect 5 0 4 0;
#X connect 6 0 4 0;
#X connect 7 0 3 0;
#X connect 10 0 8 0;
#X connect 10 1 9 0;
#X connect 11 0 13 0;
#X connect 12 0 10 0;
#X connect 13 0 12 0;
#X connect 14 0 12 0;
#X connect 15 0 33 0;
#X connect 16 0 33 0;
#X connect 17 0 15 0;
#X connect 17 1 16 0;
#X connect 18 0 20 0;
#X connect 19 0 17 0;
#X connect 20 0 19 0;
#X connect 21 0 19 0;
#X connect 22 0 18 0;
#X connect 23 0 11 0;
#X connect 24 0 34 0;
#X connect 25 0 34 0;
#X connect 26 0 24 0;
#X connect 26 1 25 0;
#X connect 27 0 29 0;
#X connect 28 0 26 0;
#X connect 29 0 28 0;
#X connect 30 0 28 0;
#X connect 35 0 27 0;
#X connect 37 0 40 0;
#X connect 38 0 39 0;
#X connect 39 0 42 0;
#X connect 40 0 42 0;
#X connect 42 0 41 0;
#X connect 43 0 52 0;
#X connect 44 0 51 0;
#X connect 45 0 50 0;
#X connect 46 0 45 0;
#X connect 47 0 46 0;
#X connect 48 0 46 0;
#X connect 49 0 48 0;
#X connect 51 0 47 0;
#X connect 52 0 47 0;
