#N canvas 827 239 527 327 12;
#X obj 118 223 sel 1;
#X obj 118 125 change;
#X obj 118 188 tgl 25 0 empty empty empty 17 7 0 10 #191919 #e1e1e1 #e1e1e1 0 1;
#X obj 118 155 sel 1;
#X obj 165 155 loadbang;
#X obj 118 328 line~, f 7;
#X obj 165 424 snapshot~;
#X obj 345 360 loadbang;
#X obj 345 392 metro 2;
#X msg 120 257 0;
#X msg 152 256 1;
#X msg 118 290 \$1 2000, f 9;
#X obj 108 579 dac~;
#X obj 561 232 sel 1;
#X obj 561 131 change;
#X obj 561 195 tgl 25 0 empty empty empty 17 7 0 10 #191919 #e1e1e1 #e1e1e1 0 1;
#X obj 561 163 sel 1;
#X obj 608 163 loadbang;
#X obj 561 328 line~, f 7;
#X obj 608 424 snapshot~;
#X obj 657 360 loadbang;
#X obj 657 392 metro 2;
#X msg 564 265 0;
#X msg 596 264 1;
#X msg 561 288 \$1 2000, f 9;
#X obj 551 579 dac~;
#X obj 839 232 sel 1;
#X obj 839 131 change;
#X obj 839 195 tgl 25 0 empty empty empty 17 7 0 10 #191919 #e1e1e1 #e1e1e1 0 1;
#X obj 839 163 sel 1;
#X obj 886 163 loadbang;
#X obj 839 328 line~, f 7;
#X obj 893 424 snapshot~;
#X obj 955 360 loadbang;
#X obj 955 392 metro 2;
#X msg 840 264 0;
#X msg 873 264 1;
#X msg 839 296 \$1 2000, f 9;
#X obj 829 579 dac~;
#X obj 893 457 s led3 @hv_param;
#X obj 608 457 s led1 @hv_param;
#X obj 165 457 s led2 @hv_param;
#X obj 893 360 *~ -1;
#X obj 893 392 +~ 1;
#X obj 608 360 *~ -1;
#X obj 608 392 +~ 1;
#X obj 165 360 *~ -1;
#X obj 165 392 +~ 1;
#X obj 118 99 r mpr121_driver_ch0 @hv_param;
#X obj 561 97 r mpr121_driver_ch1 @hv_param;
#X obj 839 99 r mpr121_driver_ch2 @hv_param;
#X obj 485 457 osc~ 311.13;
#X obj 774 457 osc~ 392;
#X obj 108 536 *~ 0.3;
#X obj 551 536 *~ 0.3;
#X obj 829 536 *~ 0.3;
#X obj 829 495 *~;
#X obj 551 495 *~;
#X obj 108 495 *~;
#X text 249 154 loadbang to ensure the initial led state on boot, f 25;
#X text 226 359 using simple reversing math: [* -1] --> [+ 1], f 15;
#X text 34 49 Toggling the touchpads will open the gate to the sound of an osc~ \, an LED is showing wether the pad is on or off, f 126;
#X text 226 240 While the volume gets a 1 to open \, the LED needs to get the reversed (if the json is not using reverse and anode is connected to PWM pins, f 25;
#X text 345 423 loadbang and metro to update the snapshot every few samples, f 15;
#X obj 34 457 osc~ 261.63;
#X connect 0 0 9 0;
#X connect 0 1 10 0;
#X connect 1 0 3 0;
#X connect 2 0 0 0;
#X connect 3 0 2 0;
#X connect 4 0 2 0;
#X connect 5 0 46 0;
#X connect 5 0 58 1;
#X connect 6 0 41 0;
#X connect 7 0 8 0;
#X connect 8 0 6 0;
#X connect 9 0 11 0;
#X connect 10 0 11 0;
#X connect 11 0 5 0;
#X connect 13 0 22 0;
#X connect 13 1 23 0;
#X connect 14 0 16 0;
#X connect 15 0 13 0;
#X connect 16 0 15 0;
#X connect 17 0 15 0;
#X connect 18 0 44 0;
#X connect 18 0 57 1;
#X connect 19 0 40 0;
#X connect 20 0 21 0;
#X connect 21 0 19 0;
#X connect 22 0 24 0;
#X connect 23 0 24 0;
#X connect 24 0 18 0;
#X connect 26 0 35 0;
#X connect 26 1 36 0;
#X connect 27 0 29 0;
#X connect 28 0 26 0;
#X connect 29 0 28 0;
#X connect 30 0 28 0;
#X connect 31 0 42 0;
#X connect 31 0 56 1;
#X connect 32 0 39 0;
#X connect 33 0 34 0;
#X connect 34 0 32 0;
#X connect 35 0 37 0;
#X connect 36 0 37 0;
#X connect 37 0 31 0;
#X connect 42 0 43 0;
#X connect 43 0 32 0;
#X connect 44 0 45 0;
#X connect 45 0 19 0;
#X connect 46 0 47 0;
#X connect 47 0 6 0;
#X connect 48 0 1 0;
#X connect 49 0 14 0;
#X connect 50 0 27 0;
#X connect 51 0 57 0;
#X connect 52 0 56 0;
#X connect 53 0 12 0;
#X connect 53 0 12 1;
#X connect 54 0 25 0;
#X connect 54 0 25 1;
#X connect 55 0 38 0;
#X connect 55 0 38 1;
#X connect 56 0 55 0;
#X connect 57 0 54 0;
#X connect 58 0 53 0;
#X connect 64 0 58 0;
