#N canvas 827 239 527 327 12;
#X obj 368 318 snapshot~;
#X obj 449 267 bang~;
#X obj 544 362 send led2 @hv_param;
#X obj 393 362 send led3 @hv_param;
#X obj 242 362 send led4 @hv_param;
#X obj 368 241 line~;
#X obj 503 9 loadbang;
#X obj 503 81 tgl 25 0 empty empty empty 17 7 0 10 #191919 #e1e1e1 #e1e1e1 0 1;
#X obj 503 124 sel 1;
#X msg 543 173 1;
#X msg 503 173 0;
#X obj 640 290 dac~;
#X obj 503 47 metro 4500;
#X msg 503 211 \$1 1500;
#X connect 0 0 2 0;
#X connect 0 0 3 0;
#X connect 0 0 4 0;
#X connect 1 0 0 0;
#X connect 5 0 0 0;
#X connect 6 0 12 0;
#X connect 7 0 8 0;
#X connect 8 0 10 0;
#X connect 8 1 9 0;
#X connect 9 0 13 0;
#X connect 10 0 13 0;
#X connect 12 0 7 0;
#X connect 13 0 5 0;
