#N canvas 827 239 527 327 12;
#X obj 118 178 sel 1;
#X obj 118 80 change;
#X obj 118 143 tgl 25 0 empty empty empty 17 7 0 10 #191919 #e1e1e1 #e1e1e1 0 1;
#X obj 118 110 sel 1;
#X obj 165 110 loadbang;
#X obj 118 283 line~, f 7;
#X obj 165 379 snapshot~;
#X obj 213 315 loadbang;
#X obj 213 347 metro 2;
#X msg 120 212 0;
#X msg 152 211 1;
#X msg 118 245 \$1 2000, f 9;
#X obj 108 534 dac~;
#X obj 404 187 sel 1;
#X obj 404 86 change;
#X obj 404 150 tgl 25 0 empty empty empty 17 7 0 10 #191919 #e1e1e1 #e1e1e1 0 1;
#X obj 404 118 sel 1;
#X obj 451 118 loadbang;
#X obj 404 283 line~, f 7;
#X obj 451 379 snapshot~;
#X obj 500 315 loadbang;
#X obj 500 347 metro 2;
#X msg 407 220 0;
#X msg 439 219 1;
#X msg 404 243 \$1 2000, f 9;
#X obj 394 534 dac~;
#X obj 682 187 sel 1;
#X obj 682 86 change;
#X obj 682 150 tgl 25 0 empty empty empty 17 7 0 10 #191919 #e1e1e1 #e1e1e1 0 1;
#X obj 682 118 sel 1;
#X obj 729 118 loadbang;
#X obj 682 283 line~, f 7;
#X obj 736 379 snapshot~;
#X obj 798 315 loadbang;
#X obj 798 347 metro 2;
#X msg 683 219 0;
#X msg 716 219 1;
#X msg 682 251 \$1 2000, f 9;
#X obj 672 534 dac~;
#X obj 736 412 s led3 @hv_param;
#X obj 451 412 s led1 @hv_param;
#X obj 165 412 s led2 @hv_param;
#X obj 736 315 *~ -1;
#X obj 736 347 +~ 1;
#X obj 451 315 *~ -1;
#X obj 451 347 +~ 1;
#X obj 165 315 *~ -1;
#X obj 165 347 +~ 1;
#X obj 118 54 r mpr121_driver_ch0 @hv_param;
#X obj 404 52 r mpr121_driver_ch1 @hv_param;
#X obj 682 54 r mpr121_driver_ch2 @hv_param;
#X obj 34 412 osc~ 261.63;
#X obj 328 412 osc~ 311.13;
#X obj 617 412 osc~ 392;
#X obj 108 491 *~ 0.3;
#X obj 394 491 *~ 0.3;
#X obj 672 491 *~ 0.3;
#X obj 672 450 *~;
#X obj 394 450 *~;
#X obj 108 450 *~;
#X connect 0 0 9 0;
#X connect 0 1 10 0;
#X connect 1 0 3 0;
#X connect 2 0 0 0;
#X connect 3 0 2 0;
#X connect 4 0 2 0;
#X connect 5 0 46 0;
#X connect 5 0 59 1;
#X connect 6 0 41 0;
#X connect 7 0 8 0;
#X connect 8 0 6 0;
#X connect 9 0 11 0;
#X connect 10 0 11 0;
#X connect 11 0 5 0;
#X connect 13 0 22 0;
#X connect 13 1 23 0;
#X connect 14 0 16 0;
#X connect 15 0 13 0;
#X connect 16 0 15 0;
#X connect 17 0 15 0;
#X connect 18 0 44 0;
#X connect 18 0 58 1;
#X connect 19 0 40 0;
#X connect 20 0 21 0;
#X connect 21 0 19 0;
#X connect 22 0 24 0;
#X connect 23 0 24 0;
#X connect 24 0 18 0;
#X connect 26 0 35 0;
#X connect 26 1 36 0;
#X connect 27 0 29 0;
#X connect 28 0 26 0;
#X connect 29 0 28 0;
#X connect 30 0 28 0;
#X connect 31 0 42 0;
#X connect 31 0 57 1;
#X connect 32 0 39 0;
#X connect 33 0 34 0;
#X connect 34 0 32 0;
#X connect 35 0 37 0;
#X connect 36 0 37 0;
#X connect 37 0 31 0;
#X connect 42 0 43 0;
#X connect 43 0 32 0;
#X connect 44 0 45 0;
#X connect 45 0 19 0;
#X connect 46 0 47 0;
#X connect 47 0 6 0;
#X connect 48 0 1 0;
#X connect 49 0 14 0;
#X connect 50 0 27 0;
#X connect 51 0 59 0;
#X connect 52 0 58 0;
#X connect 53 0 57 0;
#X connect 54 0 12 0;
#X connect 54 0 12 1;
#X connect 55 0 25 0;
#X connect 55 0 25 1;
#X connect 56 0 38 0;
#X connect 56 0 38 1;
#X connect 57 0 56 0;
#X connect 58 0 55 0;
#X connect 59 0 54 0;
