#N canvas 827 239 527 327 12;
#X obj 442 559 cnv 15 339 59 empty empty empty 20 12 0 14 #52692a #e1e1e1 0;
#X obj 805 467 cnv 15 422 65 empty empty empty 20 12 0 14 #52692a #e1e1e1 0;
#X obj 442 467 cnv 15 339 65 empty empty empty 20 12 0 14 #693a46 #e1e1e1 0;
#X obj 805 559 cnv 15 415 59 empty empty empty 20 12 0 14 #693a46 #e1e1e1 0;
#X obj 310 275 tgl 25 0 empty empty empty 17 7 0 10 #191919 #e1e1e1 #e1e1e1 0 1;
#X obj 310 206 loadbang;
#X obj 310 315 sel 1;
#X msg 311 349 0;
#X msg 348 349 1;
#X obj 310 467 s led2 @hv_param;
#X obj 310 559 s led3 @hv_param;
#X obj 310 419 line~;
#X obj 393 419 snapshot~;
#X obj 393 349 loadbang;
#X obj 616 206 adc~;
#X obj 616 275 dac~;
#X obj 393 384 metro 1;
#X text 516 597 this results in smoother fading;
#X text 460 466 connected with anode to 3v3 \, cathode to pin D24;
#X text 819 558 connected with anode to pin D25 \, cathode to ground \, json set to "invert": "false";
#X text 816 466 connected with anode to 3v3 \, cathode to pin D24 \, json set to "invert": "false";
#X text 460 558 connected with anode to pin D25 \, cathode to ground;
#X obj 310 240 metro 5000;
#X msg 310 384 \$1 2490;
#X text 903 597 this results in jittery / stepped fading;
#X text 480 509 this results in jittery / stepped fading;
#X text 924 503 this results in smoother fading;
#X connect 4 0 6 0;
#X connect 5 0 22 0;
#X connect 6 0 7 0;
#X connect 6 1 8 0;
#X connect 7 0 23 0;
#X connect 8 0 23 0;
#X connect 11 0 12 0;
#X connect 12 0 10 0;
#X connect 12 0 9 0;
#X connect 13 0 16 0;
#X connect 14 0 15 0;
#X connect 14 1 15 1;
#X connect 16 0 12 0;
#X connect 22 0 4 0;
#X connect 23 0 11 0;
