#N canvas 827 239 527 327 12;
#X obj 717 636 s led3 @hv_param;
#X obj 579 636 s led2 @hv_param;
#X obj 579 426 loadbang;
#X obj 717 557 * -1;
#X obj 579 557 * -1;
#X obj 717 582 + 1;
#X obj 579 582 + 1;
#X msg 579 513 0.02;
#X msg 719 513 1;
#X connect 2 0 7 0;
#X connect 2 0 8 0;
#X connect 3 0 5 0;
#X connect 4 0 6 0;
#X connect 5 0 0 0;
#X connect 6 0 1 0;
#X connect 7 0 4 0;
#X connect 8 0 3 0;
