#N canvas 827 239 527 327 12;
#X obj 619 744 cnv 15 659 20 empty empty empty 20 12 0 14 #52692a #e1e1e1 0;
#X obj 619 620 cnv 15 659 20 empty empty empty 20 12 0 14 #52692a #e1e1e1 0;
#X obj 619 655 cnv 15 660 20 empty empty empty 20 12 0 14 #693a46 #e1e1e1 0;
#X obj 619 711 cnv 15 659 20 empty empty empty 20 12 0 14 #693a46 #e1e1e1 0;
#X obj 484 620 s led2 @hv_param;
#X obj 484 711 s led3 @hv_param;
#X obj 261 384 line~;
#X obj 335 581 snapshot~;
#X obj 335 440 loadbang;
#X obj 250 642 dac~;
#X text 636 710 connected with anode to pin D25 \, cathode to ground;
#X obj 128 263 hsl 127 20 0 1 0 0 empty empty empty -2 -8 0 10 #191919 #e1e1e1 #e1e1e1 0 1;
#X obj 261 263 r knob1 @hv_param;
#X msg 261 351 \$1 20;
#X text 636 619 connected with anode to 3v3 \, cathode to pin D24;
#X text 1140 743 fade from Off to On;
#X text 1140 654 fade from On to Off;
#X obj 206 520 osc~;
#X obj 206 470 *~ 440;
#X obj 250 581 *~;
#X obj 484 504 snapshot~;
#X obj 484 537 s led1 @hv_param;
#X obj 484 440 *~ -1;
#X obj 484 472 +~ 1;
#X text 122 580 Volume;
#X obj 335 472 metro 2;
#X text 118 222 Using a knob changes the volume and the pitch of an osc~ + changes the LED's Brightness, f 80;
#X text 1140 710 fade from On to Off;
#X text 1140 619 fade from Off to On;
#X text 636 743 connected with anode to pin D25 \, cathode to ground \, json set to "invert": "false", f 72;
#X obj 484 786 line;
#X obj 484 827 s led4 @hv_param;
#X text 636 654 connected with anode to 3v3 \, cathode to pin D24 \, json set to "invert": "false", f 67;
#X obj 619 827 cnv 15 659 20 empty empty empty 20 12 0 14 #693a46 #e1e1e1 0;
#X text 1140 826 fade from On to Off;
#X text 636 826 connected with anode to pin D28 \, cathode to ground;
#X obj 619 537 cnv 15 659 20 empty empty empty 20 12 0 14 #52692a #e1e1e1 0;
#X obj 619 572 cnv 15 660 20 empty empty empty 20 12 0 14 #693a46 #e1e1e1 0;
#X text 636 536 connected with anode to 3v3 \, cathode to pin D24;
#X text 1140 571 fade from On to Off;
#X text 1140 536 fade from Off to On;
#X text 636 571 connected with anode to 3v3 \, cathode to pin D24 \, json set to "invert": "false", f 67;
#X text 567 453 [* -1] - [+ 1] reversing the 0 to 1 signal;
#X text 122 469 Pitch in hz;
#X text 122 357 Ease the amount of data this knob sends, f 19;
#X text 567 503 snapshot~ converts a signal to float \, but needs to get updated with metro, f 68;
#X connect 6 0 7 0;
#X connect 6 0 18 0;
#X connect 6 0 19 1;
#X connect 6 0 22 0;
#X connect 7 0 5 0;
#X connect 7 0 4 0;
#X connect 8 0 25 0;
#X connect 11 0 13 0;
#X connect 12 0 13 0;
#X connect 13 0 6 0;
#X connect 13 0 30 0;
#X connect 17 0 19 0;
#X connect 18 0 17 0;
#X connect 19 0 9 0;
#X connect 19 0 9 1;
#X connect 20 0 21 0;
#X connect 22 0 23 0;
#X connect 23 0 20 0;
#X connect 25 0 7 0;
#X connect 25 0 20 0;
#X connect 30 0 31 0;
