#N canvas 827 239 527 327 12;
#X obj 840 157 cnv 15 366 512 empty empty Pink\ noise 6 12 0 14 #878787 #000000 0;
#X obj 397 157 cnv 15 366 512 empty empty WhiteNoise 6 12 0 14 #878787 #000000 0;
#X obj 415 194 noise~, f 8;
#X obj 415 445 *~;
#X obj 415 232 *~ 0.05, f 8;
#X obj 491 317 sel 1;
#X obj 491 219 change;
#X obj 491 282 tgl 25 0 empty empty empty 17 7 0 10 #191919 #e1e1e1 #e1e1e1 0 1;
#X obj 491 249 sel 1;
#X obj 538 249 loadbang;
#X obj 491 193 r mpr121_driver_ch0 @hv_param;
#X obj 626 463 s led2 @hv_param;
#X obj 491 411 line~, f 7;
#X obj 626 433 snapshot~;
#X obj 626 364 loadbang;
#X msg 459 485 \$1 20;
#X obj 459 463 r knob0 @hv_param;
#X obj 459 514 line~;
#X obj 415 593 *~;
#X obj 626 391 metro 2;
#X msg 493 351 0;
#X msg 525 350 1;
#X obj 858 194 hv.pinknoise~;
#X obj 858 445 *~;
#X obj 858 232 *~ 0.05, f 8;
#X obj 974 317 sel 1;
#X obj 974 219 change;
#X obj 974 282 tgl 25 0 empty empty empty 17 7 0 10 #191919 #e1e1e1 #e1e1e1 0 1;
#X obj 974 249 sel 1;
#X obj 1021 249 loadbang;
#X obj 974 411 line~, f 7;
#X obj 1069 433 snapshot~;
#X obj 1069 364 loadbang;
#X msg 902 485 \$1 20;
#X obj 902 514 line~;
#X obj 858 593 *~;
#X obj 1069 391 metro 2;
#X msg 976 351 0;
#X msg 1008 350 1;
#X obj 974 193 r mpr121_driver_ch1 @hv_param;
#X obj 902 463 r knob1 @hv_param;
#X msg 1398 344 1;
#X obj 1396 312 sel 1;
#X obj 1396 203 change;
#X obj 1396 275 tgl 25 0 empty empty empty 17 7 0 10 #191919 #e1e1e1 #e1e1e1 0 1;
#X obj 1396 244 sel 1;
#X obj 1450 244 loadbang;
#X obj 1396 177 r mpr121_driver_ch2 @hv_param;
#X obj 1293 636 line~;
#X obj 858 706 *~;
#X obj 415 706 *~;
#X obj 1293 423 metro 1000;
#X msg 1342 453 200;
#X msg 1392 453 300;
#X obj 1292 510 hv.drunk 1000 300;
#X obj 1292 544 / 1000;
#X obj 1006 533 hsl 128 17 0 1 0 0 empty empty empty -2 -8 0 10 #191919 #e1e1e1 #e1e1e1 0 1;
#X obj 563 533 hsl 128 17 0 1 0 0 empty empty empty -2 -8 0 10 #191919 #e1e1e1 #e1e1e1 0 1;
#X obj 1454 631 line~;
#X msg 1503 448 200;
#X msg 1553 448 300;
#X obj 1453 505 hv.drunk 1000 300;
#X obj 1453 539 / 1000;
#X obj 1454 423 metro 1000;
#X msg 1293 588 \$1 1000, f 9;
#X msg 1454 583 \$1 2000, f 9;
#X obj 459 706 *~;
#X obj 902 706 *~;
#X msg 974 384 \$1 2000, f 9;
#X msg 491 384 \$1 2000, f 9;
#X msg 1430 343 0.2;
#X obj 813 1136 bp~ 500 10;
#X msg 1030 838 \$1 20;
#X obj 1030 867 line~;
#X obj 996 785 hsl 128 17 0 1 0 0 empty empty empty -2 -8 0 10 #191919 #e1e1e1 #e1e1e1 0 1;
#X obj 1030 926 snapshot~;
#X obj 1084 867 loadbang;
#X obj 1030 809 r knob3 @hv_param;
#X floatatom 983 1046 7 0 0 0 - - - 0;
#X floatatom 1017 1103 5 1 50 0 - - - 0;
#X obj 950 1136 bp~ 500 10;
#X obj 986 1019 hsl 93 21 200 2000 0 0 empty empty empty -2 -10 0 12 #dfdfdf #000000 #000000 0 1;
#X obj 1020 1076 hsl 89 22 1 20 0 0 empty empty empty -2 -10 0 12 #dfdfdf #000000 #000000 0 1;
#X obj 1084 894 metro 20;
#X obj 1030 968 * 20;
#X msg 850 838 \$1 20;
#X obj 850 867 line~;
#X obj 816 785 hsl 128 17 0 1 0 0 empty empty empty -2 -8 0 10 #191919 #e1e1e1 #e1e1e1 0 1;
#X obj 850 926 snapshot~;
#X obj 904 867 loadbang;
#X obj 904 894 metro 20;
#X obj 850 968 * 2000;
#X obj 653 786 +~;
#X obj 728 786 +~;
#X obj 873 1209 dac~;
#X obj 850 809 r knob2 @hv_param;
#X obj 1069 463 s led4 @hv_param;
#X obj 1509 370 s led3 @hv_param;
#X connect 2 0 4 0;
#X connect 3 0 18 0;
#X connect 4 0 3 0;
#X connect 5 0 20 0;
#X connect 5 1 21 0;
#X connect 6 0 8 0;
#X connect 7 0 5 0;
#X connect 8 0 7 0;
#X connect 9 0 7 0;
#X connect 10 0 6 0;
#X connect 12 0 3 1;
#X connect 12 0 13 0;
#X connect 13 0 11 0;
#X connect 14 0 19 0;
#X connect 15 0 17 0;
#X connect 16 0 15 0;
#X connect 17 0 18 1;
#X connect 18 0 50 0;
#X connect 18 0 66 0;
#X connect 19 0 13 0;
#X connect 20 0 69 0;
#X connect 21 0 69 0;
#X connect 22 0 24 0;
#X connect 23 0 35 0;
#X connect 24 0 23 0;
#X connect 25 0 37 0;
#X connect 25 1 38 0;
#X connect 26 0 28 0;
#X connect 27 0 25 0;
#X connect 28 0 27 0;
#X connect 29 0 27 0;
#X connect 30 0 23 1;
#X connect 30 0 31 0;
#X connect 31 0 96 0;
#X connect 32 0 36 0;
#X connect 33 0 34 0;
#X connect 34 0 35 1;
#X connect 35 0 49 0;
#X connect 35 0 67 0;
#X connect 36 0 31 0;
#X connect 37 0 68 0;
#X connect 38 0 68 0;
#X connect 39 0 26 0;
#X connect 40 0 33 0;
#X connect 41 0 97 0;
#X connect 42 0 41 0;
#X connect 42 1 70 0;
#X connect 43 0 45 0;
#X connect 44 0 42 0;
#X connect 44 0 51 0;
#X connect 44 0 63 0;
#X connect 45 0 44 0;
#X connect 46 0 44 0;
#X connect 47 0 43 0;
#X connect 48 0 49 1;
#X connect 48 0 66 1;
#X connect 49 0 92 1;
#X connect 50 0 92 0;
#X connect 51 0 54 0;
#X connect 52 0 54 1;
#X connect 53 0 54 2;
#X connect 54 0 55 0;
#X connect 55 0 64 0;
#X connect 56 0 33 0;
#X connect 57 0 15 0;
#X connect 58 0 67 1;
#X connect 58 0 50 1;
#X connect 59 0 61 1;
#X connect 60 0 61 2;
#X connect 61 0 62 0;
#X connect 62 0 65 0;
#X connect 63 0 61 0;
#X connect 64 0 48 0;
#X connect 65 0 58 0;
#X connect 66 0 93 0;
#X connect 67 0 93 1;
#X connect 68 0 30 0;
#X connect 69 0 12 0;
#X connect 70 0 64 0;
#X connect 70 0 65 0;
#X connect 70 0 97 0;
#X connect 71 0 94 0;
#X connect 72 0 73 0;
#X connect 73 0 75 0;
#X connect 74 0 72 0;
#X connect 75 0 84 0;
#X connect 76 0 83 0;
#X connect 77 0 72 0;
#X connect 78 0 80 1;
#X connect 78 0 71 1;
#X connect 79 0 80 2;
#X connect 79 0 71 2;
#X connect 80 0 94 1;
#X connect 81 0 78 0;
#X connect 82 0 79 0;
#X connect 83 0 75 0;
#X connect 84 0 79 0;
#X connect 85 0 86 0;
#X connect 86 0 88 0;
#X connect 87 0 85 0;
#X connect 88 0 91 0;
#X connect 89 0 90 0;
#X connect 90 0 88 0;
#X connect 91 0 78 0;
#X connect 92 0 71 0;
#X connect 93 0 80 0;
#X connect 95 0 85 0;
