#N canvas 827 239 527 327 12;
#X obj 259 259 loadbang;
#X obj 260 379 s led1 @hv_param;
#X obj 639 379 s led2 @hv_param;
#X msg 261 326 0;
#X msg 640 326 0;
#X obj 259 421 cnv 15 319 59 empty empty empty 20 12 0 14 #693a46 #e1e1e1 0;
#X obj 640 421 cnv 15 344 59 empty empty empty 20 12 0 14 #52692a #e1e1e1 0;
#X text 277 420 connected with anode to 3v3 \, cathode to pin D23;
#X text 654 420 connected with anode to pin D24 \, cathode to ground;
#X text 361 446 LED = OFF;
#X text 660 446 LED = ON;
#X connect 0 0 3 0;
#X connect 0 0 4 0;
#X connect 3 0 1 0;
#X connect 4 0 2 0;
