#N canvas 827 239 527 327 12;
#X obj 282 119 r knob1 @hv_param;
#X msg 282 247 \$1 20;
#X obj 282 299 line~;
#X obj 282 352 *~ 440;
#X obj 282 405 osc~;
#X obj 379 503 dac~;
#X obj 387 466 *~;
#X msg 651 247 \$1 20;
#X obj 651 299 line~;
#X obj 651 119 r faderleft @hv_param;
#X text 431 465 mixing volume;
#X text 369 343 calculate / map to a new range \, this example maps val 0-1 to 0-440, f 34;
#X text 431 502 audio out Left / Right;
#X obj 306 185 hsl 102 21 0 1 0 0 empty empty empty -2 -8 0 10 #191919 #e1e1e1 #e1e1e1 0 1;
#X obj 691 185 hsl 102 21 0 1 0 0 empty empty empty -2 -8 0 10 #191919 #e1e1e1 #e1e1e1 0 1;
#X text 431 170 while testing in PD use a slider 0-1 \, delete when optimizing your patch, f 24;
#X text 431 103 receive knob value (0 - 1) from pin setup in custom json, f 24;
#X text 431 238 \$1 = knob value \, set 20ms as ramp time for ~line, f 24;
#X text 433 290 line~ for smoothness \, sig~ for continuous., f 24;
#X text 367 396 cosine wave oscillator \, the input is the hz, f 24;
#X connect 0 0 1 0 32.................s.........PK.........jE....;
#X connect 1 0 2 0 32.................E.........PA.........n.....;
#X connect 2 0 3 0 32.................O.........vC.........3A....;
#X connect 3 0 4 0 32.................P..........D.........7A....;
#X connect 4 0 6 0 32.................S....jF...vD....oA...jB....;
#X connect 6 0 5 0;
#X connect 6 0 5 1;
#X connect 7 0 8 0 32.................E.........PA.........n.....;
#X connect 8 0 6 1 32.................9A...Pv+++ue....D7+++6H....;
#X connect 9 0 7 0 32.................s.........PK.........jE....;
#X connect 13 0 1 0;
#X connect 14 0 7 0;
