#N canvas 827 239 527 327 12;
#X obj 1286 425 cnv 15 174 115 empty empty empty 20 12 0 14 #696969 #e1e1e1 0;
#X obj 884 425 cnv 15 176 95 empty empty empty 20 12 0 14 #696969 #e1e1e1 0;
#X obj 884 305 cnv 15 578 86 empty empty empty 20 12 0 14 #696969 #e1e1e1 0;
#X obj 884 221 cnv 15 578 73 empty empty empty 20 12 0 14 #696969 #e1e1e1 0;
#X msg 719 1159 \$1 20;
#X obj 899 483 osc~;
#X obj 899 434 *~ 440;
#X msg 899 314 \$1 20;
#X obj 899 362 line~;
#X obj 1322 572 dac~;
#X obj 1322 231 r knob2 @hv_param;
#X obj 899 231 r knob1 @hv_param;
#X msg 1322 314 \$1 20;
#X obj 1322 362 line~;
#X obj 1311 515 *~;
#X text 1039 313 read knob with small time interval to ease the amount of times it is read, f 30;
#X text 972 433 multiply the signal up to 440Hz, f 11;
#X text 1383 433 control the amount of volume, f 11;
#X obj 1322 434 *~ 0.5;
#X text 1063 230 Read value from pin with name knob1 / knob 2 (name setup in json) - range from 0 to 1, f 28;
#X connect 5 0 14 0;
#X connect 6 0 5 0;
#X connect 7 0 8 0;
#X connect 8 0 6 0;
#X connect 10 0 12 0;
#X connect 11 0 7 0;
#X connect 12 0 13 0;
#X connect 13 0 18 0;
#X connect 14 0 9 0;
#X connect 14 0 9 1;
#X connect 18 0 14 1;
