#N canvas 827 239 527 327 12;
#X obj 461 352 cnv 15 137 69 empty empty if\ not\ diff\,\ join 20 12 0 14 #696969 #e1e1e1 0;
#X obj 111 254 phasor~ 220;
#X obj 111 283 +~;
#X obj 111 312 cos~;
#X obj 111 341 *~;
#X obj 111 581 dac~;
#X obj 272 295 cos~;
#X obj 272 335 *~;
#X obj 272 218 phasor~ 335;
#X obj 111 387 *~ 0.5;
#X obj 340 265 cos~;
#X obj 272 265 +~;
#X obj 340 294 *~ 0.15;
#X obj 111 52 r knob1 @hv_param;
#X obj 484 380 line~;
#X obj 535 380 line~;
#X obj 265 52 hsl 128 17 0 1 0 0 empty empty empty -2 -8 0 10 #191919 #e1e1e1 #e1e1e1 0 1;
#X obj 719 350 r knob2 @hv_param;
#X obj 441 126 r mpr121_driver_ch4 @hv_param;
#X obj 484 189 change;
#X obj 484 224 sel 0 1;
#X msg 484 265 0 500;
#X msg 552 265 1 10;
#X obj 680 175 tgl 25 0 empty empty empty 17 7 0 10 #191919 #e1e1e1 #e1e1e1 0 1;
#X obj 111 428 clip~ -0.95 0.95;
#X obj 111 532 *~;
#X obj 253 479 hsl 128 17 0 1 0 0 empty empty empty -2 -8 0 10 #191919 #e1e1e1 #e1e1e1 0 1;
#X msg 111 96 \$1 20;
#X obj 111 160 *~ 100;
#X obj 200 208 *~ 3;
#X obj 111 126 line~;
#X msg 718 380 \$1 20;
#X obj 651 420 line~;
#X obj 822 380 hsl 128 17 0 1 0 0 empty empty empty -2 -8 0 10 #191919 #e1e1e1 #e1e1e1 0 1;
#X obj 718 420 * 127;
#X obj 588 459 *~;
#X msg 184 489 \$1 20;
#X obj 184 519 line~;
#X obj 251 445 r faderleft @hv_param;
#X connect 1 0 2 0;
#X connect 2 0 3 0;
#X connect 3 0 4 0;
#X connect 4 0 9 0;
#X connect 6 0 7 0;
#X connect 7 0 2 1;
#X connect 8 0 10 0;
#X connect 8 0 11 0;
#X connect 9 0 24 0;
#X connect 10 0 12 0;
#X connect 11 0 6 0;
#X connect 12 0 11 1;
#X connect 13 0 27 0;
#X connect 14 0 4 1;
#X connect 15 0 35 0;
#X connect 16 0 27 0;
#X connect 17 0 31 0;
#X connect 18 0 19 0;
#X connect 19 0 20 0;
#X connect 20 0 21 0;
#X connect 20 1 22 0;
#X connect 21 0 15 0;
#X connect 21 0 14 0;
#X connect 22 0 15 0;
#X connect 22 0 14 0;
#X connect 23 0 19 0;
#X connect 24 0 25 0;
#X connect 25 0 5 0;
#X connect 25 0 5 1;
#X connect 26 0 36 0;
#X connect 27 0 30 0;
#X connect 28 0 1 0;
#X connect 28 0 29 0;
#X connect 29 0 8 0;
#X connect 30 0 28 0;
#X connect 31 0 34 0;
#X connect 32 0 35 1;
#X connect 33 0 34 0;
#X connect 34 0 32 0;
#X connect 35 0 7 1;
#X connect 36 0 37 0;
#X connect 37 0 25 1;
#X connect 38 0 36 0;
